<svg xmlns="http://www.w3.org/2000/svg" viewBox="0 0 91.66 102.53"><defs><style>.cls-1{fill:none;stroke:#000;stroke-linecap:round;stroke-linejoin:round;stroke-width:2px;}</style></defs><title>Asset 2</title><g id="Layer_2" data-name="Layer 2"><g id="Layer_3" data-name="Layer 3"><polyline class="cls-1" points="30.83 16 45.83 1 60.83 16"/><polyline class="cls-1" points="65.83 31.86 90.66 56.7 85.24 62.13 85.21 62.15 65.83 81.53 60.83 86.53 45.83 101.53 30.83 86.53 25.83 81.53 6.45 62.15 6.43 62.13 1 56.7 25.83 31.86"/><polyline class="cls-1" points="30.83 26.86 45.83 11.86 60.83 26.86"/><polyline class="cls-1" points="30.83 37.72 45.83 22.72 60.83 37.72"/><line class="cls-1" x1="6.43" y1="62.13" x2="6.4" y2="62.15"/><line class="cls-1" x1="85.26" y1="62.15" x2="85.24" y2="62.13"/><polyline class="cls-1" points="45.83 1 45.83 11.86 45.83 22.72 45.83 62.15"/><line class="cls-1" x1="85.26" y1="62.15" x2="85.21" y2="62.15"/><line class="cls-1" x1="6.45" y1="62.15" x2="6.4" y2="62.15"/></g></g></svg>